<svg width="24" height="24" viewBox="0 0 24 24" fill="none" xmlns="http://www.w3.org/2000/svg">
<g clip-path="url(#clip0)">
<path d="M23.2975 7.97519C22.2217 4.95759 20.0352 2.53951 17.1408 1.16637C14.2465 -0.206853 10.9905 -0.370624 7.97288 0.705156C4.95528 1.78094 2.53711 3.9674 1.16397 6.86183C-0.209084 9.75626 -0.372855 13.0122 0.702844 16.0298C0.793394 16.2838 1.07277 16.4161 1.32661 16.3257C1.5806 16.2352 1.71305 15.956 1.6225 15.702C0.634261 12.93 0.784689 9.93906 2.04604 7.28025C3.3074 4.62143 5.52868 2.61289 8.30067 1.62473C11.0727 0.636572 14.0637 0.787082 16.7224 2.04836C19.3813 3.30971 21.3898 5.53099 22.378 8.30298C23.3662 11.075 23.2157 14.0659 21.9544 16.7247C20.693 19.3835 18.4717 21.3921 15.6997 22.3802C12.5928 23.4877 9.18453 23.1525 6.349 21.4606C6.1173 21.3223 5.81782 21.3981 5.67968 21.6296C5.54154 21.8612 5.6172 22.1608 5.84874 22.2989C7.73679 23.4256 9.85768 23.9995 11.9945 23.9995C13.3511 23.9995 14.7143 23.768 16.0275 23.2999C19.0452 22.2241 21.4632 20.0376 22.8364 17.1432C24.2095 14.2487 24.3733 10.9928 23.2975 7.97519Z" fill="#6900FF"/>
<path d="M17.3696 12.0016C17.3696 11.732 17.151 11.5134 16.8814 11.5134H4.72429C4.45467 11.5134 4.23615 11.732 4.23615 12.0016C4.23615 12.2711 4.45467 12.4897 4.72429 12.4897H16.8814C17.151 12.4897 17.3696 12.2711 17.3696 12.0016Z" fill="#6900FF"/>
<path d="M13.4797 17.1073C13.289 17.2979 13.289 17.607 13.4797 17.7976C13.575 17.8928 13.6999 17.9405 13.8248 17.9405C13.9497 17.9405 14.0747 17.8928 14.1699 17.7976L19.6208 12.3467C19.8115 12.1561 19.8115 11.847 19.6208 11.6564L14.1699 6.20546C13.9794 6.01485 13.6702 6.01485 13.4797 6.20546C13.289 6.39608 13.289 6.70516 13.4797 6.89578L18.5854 12.0015L13.4797 17.1073Z" fill="#6900FF"/>
</g>
<defs>
<clipPath id="clip0">
<rect width="24" height="24" fill="white"/>
</clipPath>
</defs>
</svg>
