<svg width="258" height="48" viewBox="0 0 258 48" fill="none" xmlns="http://www.w3.org/2000/svg">
<path fill-rule="evenodd" clip-rule="evenodd" d="M41 24C41 27.866 37.866 31 34 31C30.134 31 27 27.866 27 24C27 20.134 30.134 17 34 17C37.866 17 41 20.134 41 24ZM43 24C43 28.9706 38.9706 33 34 33C29.0294 33 25 28.9706 25 24C25 19.0294 29.0294 15 34 15C38.9706 15 43 19.0294 43 24ZM34.6552 25.1256C34.8176 25.295 34.8987 25.5244 34.8987 25.8137C34.8987 26.0925 34.8088 26.3149 34.6288 26.4807C34.4488 26.6431 34.2035 26.7242 33.893 26.7242C33.5189 26.7242 33.2313 26.6131 33.0301 26.3907C32.919 26.2637 32.8391 26.1059 32.7904 25.9175C32.7214 25.6501 32.5098 25.422 32.2337 25.422H31.7039C31.4277 25.422 31.1986 25.6472 31.2384 25.9205C31.3107 26.4172 31.4968 26.8315 31.7968 27.1636C32.1955 27.5977 32.7086 27.8535 33.432 27.9311V28.4815C33.432 28.7568 33.6545 28.9803 33.9298 28.9815L34.0956 28.9823C34.3726 28.9835 34.5978 28.7593 34.5978 28.4823V27.9311C35.2542 27.8641 35.4934 27.6382 35.8675 27.2642C36.2415 26.8901 36.4286 26.4031 36.4286 25.8032C36.4286 25.482 36.3792 25.2015 36.2803 24.9615C36.1815 24.718 36.0386 24.5027 35.8516 24.3157C35.6645 24.1251 35.4351 23.9557 35.1634 23.8075C34.8917 23.6558 34.5441 23.4952 34.1206 23.3258C33.7006 23.1564 33.413 22.9906 33.2578 22.8282C33.1025 22.6659 33.0248 22.4506 33.0248 22.1824C33.0248 21.893 33.1042 21.6672 33.2631 21.5048C33.4219 21.339 33.646 21.2561 33.9353 21.2561C34.2282 21.2561 34.4611 21.3619 34.6341 21.5737C34.7329 21.6903 34.8041 21.8407 34.8475 22.0249C34.911 22.2937 35.1226 22.5212 35.3987 22.5212H35.9286C36.2047 22.5212 36.4338 22.2961 36.3946 22.0227C36.3278 21.5578 36.1627 21.1646 35.8992 20.8432C35.5463 20.4091 35.2225 20.148 34.5978 20.0597V19.411C34.5978 19.1349 34.374 18.911 34.0978 18.911H33.932C33.6559 18.911 33.432 19.1349 33.432 19.411V20.0438C32.8003 20.1074 32.4479 20.3297 32.0667 20.7108C31.6856 21.092 31.495 21.5807 31.495 22.1771C31.495 22.523 31.5497 22.8212 31.6591 23.0717C31.7721 23.3223 31.9273 23.5411 32.125 23.7281C32.3261 23.9116 32.5661 24.0757 32.8449 24.2204C33.1237 24.3616 33.4554 24.5045 33.84 24.6492C34.2247 24.7939 34.4964 24.9527 34.6552 25.1256Z" fill="black"/>
<path d="M69.54 32H71.839V25.235H77.603V22.925H71.839V18.459H78.923V16.16H69.54V32ZM85.742 32.33C86.9226 32.33 87.9493 32.066 88.822 31.538C89.6946 31.0027 90.3693 30.2657 90.846 29.327C91.33 28.381 91.572 27.2883 91.572 26.049C91.572 24.8243 91.3336 23.7427 90.857 22.804C90.3803 21.858 89.7056 21.121 88.833 20.593C87.9603 20.0577 86.93 19.79 85.742 19.79C84.576 19.79 83.5566 20.054 82.684 20.582C81.8113 21.11 81.133 21.8433 80.649 22.782C80.165 23.7207 79.923 24.8097 79.923 26.049C79.923 27.2737 80.1613 28.359 80.638 29.305C81.1146 30.251 81.7856 30.9917 82.651 31.527C83.5236 32.0623 84.554 32.33 85.742 32.33ZM85.742 30.163C84.6346 30.163 83.795 29.7927 83.223 29.052C82.651 28.304 82.365 27.303 82.365 26.049C82.365 24.839 82.64 23.8563 83.19 23.101C83.74 22.3383 84.5906 21.957 85.742 21.957C86.864 21.957 87.7073 22.3273 88.272 23.068C88.844 23.8087 89.13 24.8023 89.13 26.049C89.13 27.2663 88.8476 28.2563 88.283 29.019C87.7256 29.7817 86.8786 30.163 85.742 30.163ZM93.9892 32H96.3102V26.005C96.3102 25.3083 96.4202 24.663 96.6402 24.069C96.8602 23.475 97.2489 22.9983 97.8062 22.639C98.2022 22.3823 98.6386 22.232 99.1152 22.188C99.5919 22.144 100.021 22.1733 100.402 22.276V20.12C99.8669 20.0173 99.2986 20.021 98.6972 20.131C98.1032 20.241 97.5826 20.461 97.1352 20.791C96.6952 21.0843 96.3286 21.4913 96.0352 22.012V20.12H93.9892V32ZM107.551 32.33C108.703 32.33 109.748 32.0403 110.686 31.461C111.625 30.8743 112.325 30.0493 112.787 28.986L110.532 28.271C109.931 29.5323 108.901 30.163 107.441 30.163C106.444 30.163 105.659 29.8623 105.087 29.261C104.515 28.6597 104.182 27.809 104.086 26.709H112.941C113.022 25.2863 112.853 24.058 112.435 23.024C112.017 21.99 111.383 21.1943 110.532 20.637C109.682 20.0723 108.651 19.79 107.441 19.79C106.283 19.79 105.267 20.0503 104.394 20.571C103.522 21.0917 102.84 21.8287 102.348 22.782C101.864 23.7353 101.622 24.861 101.622 26.159C101.622 27.3837 101.868 28.4617 102.359 29.393C102.858 30.317 103.551 31.0393 104.438 31.56C105.333 32.0733 106.371 32.33 107.551 32.33ZM107.529 21.825C109.326 21.825 110.345 22.8553 110.587 24.916H104.141C104.288 23.9113 104.644 23.145 105.208 22.617C105.773 22.089 106.547 21.825 107.529 21.825ZM115.629 18.173H117.928V15.94H115.629V18.173ZM115.629 32H117.928V20.12H115.629V32ZM125.95 32.33C126.625 32.33 127.234 32.2273 127.776 32.022C128.319 31.824 128.799 31.5417 129.217 31.175V32.297C129.232 33.3163 128.968 34.0863 128.425 34.607C127.89 35.135 127.131 35.399 126.148 35.399C125.62 35.399 125.118 35.2817 124.641 35.047C124.165 34.8123 123.798 34.442 123.541 33.936L121.418 35.014C121.902 35.8573 122.57 36.499 123.42 36.939C124.271 37.3863 125.173 37.61 126.126 37.61C127.512 37.61 128.671 37.3203 129.602 36.741C130.534 36.169 131.124 35.2817 131.373 34.079C131.432 33.8003 131.472 33.5143 131.494 33.221C131.516 32.935 131.527 32.6343 131.527 32.319V20.12H129.492V21.187C129.067 20.747 128.561 20.406 127.974 20.164C127.388 19.9147 126.728 19.79 125.994 19.79C124.88 19.79 123.915 20.065 123.101 20.615C122.295 21.1577 121.671 21.902 121.231 22.848C120.791 23.7867 120.571 24.8537 120.571 26.049C120.571 27.237 120.788 28.304 121.22 29.25C121.66 30.196 122.284 30.9477 123.09 31.505C123.897 32.055 124.85 32.33 125.95 32.33ZM126.269 30.251C125.536 30.251 124.927 30.064 124.443 29.69C123.959 29.316 123.6 28.8137 123.365 28.183C123.131 27.545 123.013 26.8337 123.013 26.049C123.013 25.2717 123.131 24.5677 123.365 23.937C123.607 23.3063 123.974 22.804 124.465 22.43C124.957 22.056 125.584 21.869 126.346 21.869C127.432 21.869 128.227 22.2577 128.733 23.035C129.239 23.8123 129.492 24.817 129.492 26.049C129.492 27.281 129.239 28.2893 128.733 29.074C128.227 29.8587 127.406 30.251 126.269 30.251ZM134.605 32H136.937V25.818C136.937 24.8793 137.073 24.1313 137.344 23.574C137.623 23.0093 137.99 22.6023 138.444 22.353C138.899 22.1037 139.401 21.979 139.951 21.979C140.582 21.979 141.095 22.1073 141.491 22.364C141.887 22.6207 142.192 22.958 142.404 23.376C142.617 23.794 142.76 24.2487 142.833 24.74C142.914 25.224 142.954 25.697 142.954 26.159V32H145.286V25.4C145.286 25.0333 145.253 24.608 145.187 24.124C145.121 23.64 144.997 23.145 144.813 22.639C144.63 22.133 144.362 21.6673 144.01 21.242C143.666 20.8093 143.215 20.461 142.657 20.197C142.1 19.933 141.411 19.801 140.589 19.801C139.731 19.801 138.969 19.955 138.301 20.263C137.641 20.571 137.095 20.9963 136.662 21.539V20.12H134.605V32ZM159.167 32.33C160.993 32.33 162.503 31.868 163.699 30.944C164.901 30.02 165.737 28.777 166.207 27.215L163.875 26.588C163.559 27.6953 163.009 28.5643 162.225 29.195C161.44 29.8257 160.421 30.141 159.167 30.141C158.045 30.141 157.106 29.888 156.351 29.382C155.603 28.876 155.038 28.1683 154.657 27.259C154.283 26.3497 154.099 25.29 154.107 24.08C154.114 22.87 154.305 21.8103 154.679 20.901C155.053 19.9917 155.614 19.284 156.362 18.778C157.11 18.272 158.045 18.019 159.167 18.019C160.421 18.019 161.44 18.3343 162.225 18.965C163.009 19.5957 163.559 20.4647 163.875 21.572L166.207 20.945C165.737 19.383 164.901 18.14 163.699 17.216C162.503 16.292 160.993 15.83 159.167 15.83C157.583 15.83 156.233 16.1783 155.119 16.875C154.004 17.5717 153.15 18.5397 152.556 19.779C151.969 21.011 151.676 22.4447 151.676 24.08C151.676 25.7153 151.969 27.1527 152.556 28.392C153.15 29.624 154.004 30.5883 155.119 31.285C156.233 31.9817 157.583 32.33 159.167 32.33ZM173.103 32.319C173.961 32.319 174.72 32.165 175.38 31.857C176.047 31.549 176.597 31.1237 177.03 30.581V32H179.076V20.12H176.755V26.302C176.755 27.2407 176.619 27.9923 176.348 28.557C176.077 29.1143 175.71 29.5177 175.248 29.767C174.793 30.0163 174.291 30.141 173.741 30.141C173.11 30.141 172.597 30.0127 172.201 29.756C171.805 29.4993 171.501 29.162 171.288 28.744C171.075 28.326 170.929 27.875 170.848 27.391C170.775 26.8997 170.738 26.423 170.738 25.961V20.12H168.406V26.72C168.406 27.0867 168.439 27.512 168.505 27.996C168.571 28.48 168.696 28.975 168.879 29.481C169.062 29.987 169.326 30.4563 169.671 30.889C170.023 31.3143 170.478 31.659 171.035 31.923C171.592 32.187 172.282 32.319 173.103 32.319ZM182.161 32H184.482V26.005C184.482 25.3083 184.592 24.663 184.812 24.069C185.032 23.475 185.421 22.9983 185.978 22.639C186.374 22.3823 186.81 22.232 187.287 22.188C187.764 22.144 188.193 22.1733 188.574 22.276V20.12C188.039 20.0173 187.47 20.021 186.869 20.131C186.275 20.241 185.754 20.461 185.307 20.791C184.867 21.0843 184.5 21.4913 184.207 22.012V20.12H182.161V32ZM190.669 32H192.99V26.005C192.99 25.3083 193.1 24.663 193.32 24.069C193.54 23.475 193.929 22.9983 194.486 22.639C194.882 22.3823 195.318 22.232 195.795 22.188C196.272 22.144 196.701 22.1733 197.082 22.276V20.12C196.547 20.0173 195.978 20.021 195.377 20.131C194.783 20.241 194.262 20.461 193.815 20.791C193.375 21.0843 193.008 21.4913 192.715 22.012V20.12H190.669V32ZM204.231 32.33C205.382 32.33 206.427 32.0403 207.366 31.461C208.305 30.8743 209.005 30.0493 209.467 28.986L207.212 28.271C206.611 29.5323 205.58 30.163 204.121 30.163C203.124 30.163 202.339 29.8623 201.767 29.261C201.195 28.6597 200.861 27.809 200.766 26.709H209.621C209.702 25.2863 209.533 24.058 209.115 23.024C208.697 21.99 208.063 21.1943 207.212 20.637C206.361 20.0723 205.331 19.79 204.121 19.79C202.962 19.79 201.947 20.0503 201.074 20.571C200.201 21.0917 199.519 21.8287 199.028 22.782C198.544 23.7353 198.302 24.861 198.302 26.159C198.302 27.3837 198.548 28.4617 199.039 29.393C199.538 30.317 200.231 31.0393 201.118 31.56C202.013 32.0733 203.05 32.33 204.231 32.33ZM204.209 21.825C206.006 21.825 207.025 22.8553 207.267 24.916H200.821C200.968 23.9113 201.323 23.145 201.888 22.617C202.453 22.089 203.226 21.825 204.209 21.825ZM211.756 32H214.088V25.818C214.088 24.8793 214.223 24.1313 214.495 23.574C214.773 23.0093 215.14 22.6023 215.595 22.353C216.049 22.1037 216.552 21.979 217.102 21.979C217.732 21.979 218.246 22.1073 218.642 22.364C219.038 22.6207 219.342 22.958 219.555 23.376C219.767 23.794 219.91 24.2487 219.984 24.74C220.064 25.224 220.105 25.697 220.105 26.159V32H222.437V25.4C222.437 25.0333 222.404 24.608 222.338 24.124C222.272 23.64 222.147 23.145 221.964 22.639C221.78 22.133 221.513 21.6673 221.161 21.242C220.816 20.8093 220.365 20.461 219.808 20.197C219.25 19.933 218.561 19.801 217.74 19.801C216.882 19.801 216.119 19.955 215.452 20.263C214.792 20.571 214.245 20.9963 213.813 21.539V20.12H211.756V32ZM230.233 32.33C231.509 32.33 232.595 32.022 233.489 31.406C234.384 30.79 235.026 29.899 235.414 28.733L233.082 28.183C232.84 28.821 232.488 29.3123 232.026 29.657C231.572 29.9943 230.974 30.163 230.233 30.163C229.148 30.163 228.327 29.7853 227.769 29.03C227.219 28.2747 226.941 27.2847 226.933 26.06C226.941 24.872 227.208 23.893 227.736 23.123C228.272 22.3457 229.104 21.957 230.233 21.957C230.901 21.957 231.491 22.144 232.004 22.518C232.525 22.8847 232.899 23.4017 233.126 24.069L235.414 23.409C235.121 22.2943 234.512 21.4143 233.588 20.769C232.672 20.1163 231.564 19.79 230.266 19.79C229.071 19.79 228.041 20.0577 227.175 20.593C226.317 21.1283 225.657 21.869 225.195 22.815C224.733 23.7537 224.499 24.8353 224.491 26.06C224.499 27.2627 224.726 28.337 225.173 29.283C225.628 30.229 226.281 30.9733 227.131 31.516C227.989 32.0587 229.023 32.33 230.233 32.33ZM238.832 37.28H241.021L247.577 20.12H245.245L241.89 29.052L238.381 20.12H235.983L240.79 31.945L238.832 37.28Z" fill="black"/>
<rect x="0.5" y="0.5" width="257" height="47" stroke="white"/>
</svg>
