<svg width="132" height="48" viewBox="0 0 132 48" fill="none" xmlns="http://www.w3.org/2000/svg">
<path fill-rule="evenodd" clip-rule="evenodd" d="M41 24C41 27.866 37.866 31 34 31C30.134 31 27 27.866 27 24C27 20.134 30.134 17 34 17C37.866 17 41 20.134 41 24ZM43 24C43 28.9706 38.9706 33 34 33C29.0294 33 25 28.9706 25 24C25 19.0294 29.0294 15 34 15C38.9706 15 43 19.0294 43 24ZM34.6552 25.1256C34.8176 25.295 34.8987 25.5244 34.8987 25.8137C34.8987 26.0925 34.8088 26.3149 34.6288 26.4807C34.4488 26.6431 34.2035 26.7242 33.893 26.7242C33.5189 26.7242 33.2313 26.6131 33.0301 26.3907C32.919 26.2637 32.8391 26.1059 32.7904 25.9175C32.7214 25.6501 32.5098 25.422 32.2337 25.422H31.7039C31.4277 25.422 31.1986 25.6472 31.2384 25.9205C31.3107 26.4172 31.4968 26.8315 31.7968 27.1636C32.1955 27.5977 32.7086 27.8535 33.432 27.9311V28.4815C33.432 28.7568 33.6545 28.9803 33.9298 28.9815L34.0956 28.9823C34.3726 28.9835 34.5978 28.7593 34.5978 28.4823V27.9311C35.2542 27.8641 35.4934 27.6382 35.8675 27.2642C36.2415 26.8901 36.4286 26.4031 36.4286 25.8032C36.4286 25.482 36.3792 25.2015 36.2803 24.9615C36.1815 24.718 36.0386 24.5027 35.8516 24.3157C35.6645 24.1251 35.4351 23.9557 35.1634 23.8075C34.8917 23.6558 34.5441 23.4952 34.1206 23.3258C33.7006 23.1564 33.413 22.9906 33.2578 22.8282C33.1025 22.6659 33.0248 22.4506 33.0248 22.1824C33.0248 21.893 33.1042 21.6672 33.2631 21.5048C33.4219 21.339 33.646 21.2561 33.9353 21.2561C34.2282 21.2561 34.4611 21.3619 34.6341 21.5737C34.7329 21.6903 34.8041 21.8407 34.8475 22.0249C34.911 22.2937 35.1226 22.5212 35.3987 22.5212H35.9286C36.2047 22.5212 36.4338 22.2961 36.3946 22.0227C36.3278 21.5578 36.1627 21.1646 35.8992 20.8432C35.5463 20.4091 35.2225 20.148 34.5978 20.0597V19.411C34.5978 19.1349 34.374 18.911 34.0978 18.911H33.932C33.6559 18.911 33.432 19.1349 33.432 19.411V20.0438C32.8003 20.1074 32.4479 20.3297 32.0667 20.7108C31.6856 21.092 31.495 21.5807 31.495 22.1771C31.495 22.523 31.5497 22.8212 31.6591 23.0717C31.7721 23.3223 31.9273 23.5411 32.125 23.7281C32.3261 23.9116 32.5661 24.0757 32.8449 24.2204C33.1237 24.3616 33.4554 24.5045 33.84 24.6492C34.2247 24.7939 34.4964 24.9527 34.6552 25.1256Z" fill="black"/>
<path d="M76.151 32.33C77.977 32.33 79.4877 31.868 80.683 30.944C81.8857 30.02 82.7217 28.777 83.191 27.215L80.859 26.588C80.5437 27.6953 79.9937 28.5643 79.209 29.195C78.4243 29.8257 77.405 30.141 76.151 30.141C75.029 30.141 74.0903 29.888 73.335 29.382C72.587 28.876 72.0223 28.1683 71.641 27.259C71.267 26.3497 71.0837 25.29 71.091 24.08C71.0983 22.87 71.289 21.8103 71.663 20.901C72.037 19.9917 72.598 19.284 73.346 18.778C74.094 18.272 75.029 18.019 76.151 18.019C77.405 18.019 78.4243 18.3343 79.209 18.965C79.9937 19.5957 80.5437 20.4647 80.859 21.572L83.191 20.945C82.7217 19.383 81.8857 18.14 80.683 17.216C79.4877 16.292 77.977 15.83 76.151 15.83C74.567 15.83 73.2177 16.1783 72.103 16.875C70.9883 17.5717 70.134 18.5397 69.54 19.779C68.9533 21.011 68.66 22.4447 68.66 24.08C68.66 25.7153 68.9533 27.1527 69.54 28.392C70.134 29.624 70.9883 30.5883 72.103 31.285C73.2177 31.9817 74.567 32.33 76.151 32.33ZM88.9653 32.33C90.8573 32.33 92.2836 31.6443 93.2443 30.273V32H95.2793V24.685C95.2793 24.1863 95.2573 23.7207 95.2133 23.288C95.1693 22.8553 95.052 22.4447 94.8613 22.056C94.4946 21.2713 93.9153 20.6993 93.1233 20.34C92.3386 19.9733 91.4146 19.79 90.3513 19.79C88.98 19.79 87.88 20.0907 87.0513 20.692C86.2226 21.2933 85.6653 22.1037 85.3793 23.123L87.5243 23.783C87.7296 23.123 88.0926 22.6463 88.6133 22.353C89.134 22.0597 89.706 21.913 90.3293 21.913C91.2533 21.913 91.9206 22.111 92.3313 22.507C92.7493 22.8957 92.9766 23.5007 93.0133 24.322C92.0453 24.454 91.0993 24.5933 90.1753 24.74C89.2513 24.8793 88.4446 25.048 87.7553 25.246C86.8386 25.5393 86.142 25.9757 85.6653 26.555C85.1886 27.1343 84.9503 27.8713 84.9503 28.766C84.9503 29.4113 85.1006 30.0053 85.4013 30.548C85.7093 31.0833 86.1603 31.516 86.7543 31.846C87.3556 32.1687 88.0926 32.33 88.9653 32.33ZM89.3723 30.449C88.639 30.449 88.0963 30.2803 87.7443 29.943C87.3996 29.6057 87.2273 29.206 87.2273 28.744C87.2273 28.2747 87.3813 27.9043 87.6893 27.633C88.0046 27.3617 88.397 27.1453 88.8663 26.984C89.365 26.8373 89.9516 26.709 90.6263 26.599C91.3083 26.489 92.0966 26.368 92.9913 26.236C92.984 26.5147 92.9656 26.8263 92.9363 27.171C92.907 27.5157 92.8446 27.8237 92.7493 28.095C92.6613 28.4837 92.4743 28.8577 92.1883 29.217C91.9096 29.5763 91.532 29.8733 91.0553 30.108C90.586 30.3353 90.025 30.449 89.3723 30.449ZM102.679 32.319C104.182 32.319 105.359 31.9853 106.21 31.318C107.068 30.6507 107.497 29.7303 107.497 28.557C107.497 27.941 107.368 27.4203 107.112 26.995C106.862 26.5697 106.444 26.203 105.858 25.895C105.271 25.5797 104.479 25.2937 103.482 25.037C102.55 24.8023 101.846 24.6007 101.37 24.432C100.9 24.256 100.581 24.08 100.413 23.904C100.244 23.7207 100.16 23.497 100.16 23.233C100.16 22.7783 100.376 22.4227 100.809 22.166C101.241 21.902 101.806 21.7847 102.503 21.814C103.229 21.8433 103.819 22.0267 104.274 22.364C104.728 22.694 104.996 23.1413 105.077 23.706L107.431 23.277C107.299 22.221 106.782 21.3777 105.88 20.747C104.978 20.109 103.845 19.79 102.481 19.79C101.087 19.79 99.969 20.1163 99.1257 20.769C98.2824 21.4143 97.8607 22.276 97.8607 23.354C97.8607 23.9333 97.9854 24.4283 98.2347 24.839C98.4914 25.2423 98.9167 25.5943 99.5107 25.895C100.112 26.1957 100.922 26.4817 101.942 26.753C102.873 27.0023 103.566 27.2113 104.021 27.38C104.475 27.5487 104.772 27.7283 104.912 27.919C105.058 28.1023 105.132 28.3443 105.132 28.645C105.132 29.1583 104.926 29.5617 104.516 29.855C104.112 30.1483 103.551 30.295 102.833 30.295C102.041 30.295 101.377 30.119 100.842 29.767C100.314 29.415 99.9764 28.9273 99.8297 28.304L97.4757 28.667C97.681 29.8257 98.2384 30.724 99.1477 31.362C100.057 32 101.234 32.319 102.679 32.319ZM109.92 32H112.252V25.818C112.252 24.8793 112.387 24.1313 112.659 23.574C112.937 23.0093 113.304 22.6023 113.759 22.353C114.213 22.1037 114.716 21.979 115.266 21.979C115.896 21.979 116.41 22.1073 116.806 22.364C117.202 22.6207 117.506 22.958 117.719 23.376C117.931 23.794 118.074 24.2487 118.148 24.74C118.228 25.224 118.269 25.697 118.269 26.159V32H120.601V25.4C120.601 25.0333 120.568 24.608 120.502 24.124C120.436 23.64 120.311 23.145 120.128 22.639C119.944 22.133 119.677 21.6673 119.325 21.242C118.98 20.8093 118.529 20.461 117.972 20.197C117.414 19.933 116.725 19.801 115.904 19.801C115.046 19.801 114.283 19.955 113.616 20.263C112.956 20.571 112.409 20.9963 111.977 21.539V16.16H109.92V32Z" fill="black"/>
<rect x="0.5" y="0.5" width="131" height="47" stroke="white"/>
</svg>
