<svg width="191" height="48" viewBox="0 0 191 48" fill="none" xmlns="http://www.w3.org/2000/svg">
<path fill-rule="evenodd" clip-rule="evenodd" d="M27 19H41V21H27V19ZM27 23L27 29H41V23H27ZM25 19C25 17.8954 25.8954 17 27 17H41C42.1046 17 43 17.8954 43 19V29C43 30.1046 42.1046 31 41 31H27C25.8954 31 25 30.1046 25 29V19Z" fill="white"/>
<path d="M69.54 32H71.839V25.235H77.603V22.925H71.839V18.459H78.923V16.16H69.54V32ZM85.742 32.33C86.9226 32.33 87.9493 32.066 88.822 31.538C89.6946 31.0027 90.3693 30.2657 90.846 29.327C91.33 28.381 91.572 27.2883 91.572 26.049C91.572 24.8243 91.3336 23.7427 90.857 22.804C90.3803 21.858 89.7056 21.121 88.833 20.593C87.9603 20.0577 86.93 19.79 85.742 19.79C84.576 19.79 83.5566 20.054 82.684 20.582C81.8113 21.11 81.133 21.8433 80.649 22.782C80.165 23.7207 79.923 24.8097 79.923 26.049C79.923 27.2737 80.1613 28.359 80.638 29.305C81.1146 30.251 81.7856 30.9917 82.651 31.527C83.5236 32.0623 84.554 32.33 85.742 32.33ZM85.742 30.163C84.6346 30.163 83.795 29.7927 83.223 29.052C82.651 28.304 82.365 27.303 82.365 26.049C82.365 24.839 82.64 23.8563 83.19 23.101C83.74 22.3383 84.5906 21.957 85.742 21.957C86.864 21.957 87.7073 22.3273 88.272 23.068C88.844 23.8087 89.13 24.8023 89.13 26.049C89.13 27.2663 88.8476 28.2563 88.283 29.019C87.7256 29.7817 86.8786 30.163 85.742 30.163ZM93.9892 32H96.3102V26.005C96.3102 25.3083 96.4202 24.663 96.6402 24.069C96.8602 23.475 97.2489 22.9983 97.8062 22.639C98.2022 22.3823 98.6386 22.232 99.1152 22.188C99.5919 22.144 100.021 22.1733 100.402 22.276V20.12C99.8669 20.0173 99.2986 20.021 98.6972 20.131C98.1032 20.241 97.5826 20.461 97.1352 20.791C96.6952 21.0843 96.3286 21.4913 96.0352 22.012V20.12H93.9892V32ZM107.551 32.33C108.703 32.33 109.748 32.0403 110.686 31.461C111.625 30.8743 112.325 30.0493 112.787 28.986L110.532 28.271C109.931 29.5323 108.901 30.163 107.441 30.163C106.444 30.163 105.659 29.8623 105.087 29.261C104.515 28.6597 104.182 27.809 104.086 26.709H112.941C113.022 25.2863 112.853 24.058 112.435 23.024C112.017 21.99 111.383 21.1943 110.532 20.637C109.682 20.0723 108.651 19.79 107.441 19.79C106.283 19.79 105.267 20.0503 104.394 20.571C103.522 21.0917 102.84 21.8287 102.348 22.782C101.864 23.7353 101.622 24.861 101.622 26.159C101.622 27.3837 101.868 28.4617 102.359 29.393C102.858 30.317 103.551 31.0393 104.438 31.56C105.333 32.0733 106.371 32.33 107.551 32.33ZM107.529 21.825C109.326 21.825 110.345 22.8553 110.587 24.916H104.141C104.288 23.9113 104.644 23.145 105.208 22.617C105.773 22.089 106.547 21.825 107.529 21.825ZM113.659 32H116.398L119.445 27.787L122.47 32H125.209L120.754 25.994L125.099 20.12H122.371L119.445 24.201L116.486 20.12H113.758L118.103 25.994L113.659 32ZM137.983 32.33C139.809 32.33 141.32 31.868 142.515 30.944C143.718 30.02 144.554 28.777 145.023 27.215L142.691 26.588C142.376 27.6953 141.826 28.5643 141.041 29.195C140.256 29.8257 139.237 30.141 137.983 30.141C136.861 30.141 135.922 29.888 135.167 29.382C134.419 28.876 133.854 28.1683 133.473 27.259C133.099 26.3497 132.916 25.29 132.923 24.08C132.93 22.87 133.121 21.8103 133.495 20.901C133.869 19.9917 134.43 19.284 135.178 18.778C135.926 18.272 136.861 18.019 137.983 18.019C139.237 18.019 140.256 18.3343 141.041 18.965C141.826 19.5957 142.376 20.4647 142.691 21.572L145.023 20.945C144.554 19.383 143.718 18.14 142.515 17.216C141.32 16.292 139.809 15.83 137.983 15.83C136.399 15.83 135.05 16.1783 133.935 16.875C132.82 17.5717 131.966 18.5397 131.372 19.779C130.785 21.011 130.492 22.4447 130.492 24.08C130.492 25.7153 130.785 27.1527 131.372 28.392C131.966 29.624 132.82 30.5883 133.935 31.285C135.05 31.9817 136.399 32.33 137.983 32.33ZM150.797 32.33C152.689 32.33 154.116 31.6443 155.076 30.273V32H157.111V24.685C157.111 24.1863 157.089 23.7207 157.045 23.288C157.001 22.8553 156.884 22.4447 156.693 22.056C156.327 21.2713 155.747 20.6993 154.955 20.34C154.171 19.9733 153.247 19.79 152.183 19.79C150.812 19.79 149.712 20.0907 148.883 20.692C148.055 21.2933 147.497 22.1037 147.211 23.123L149.356 23.783C149.562 23.123 149.925 22.6463 150.445 22.353C150.966 22.0597 151.538 21.913 152.161 21.913C153.085 21.913 153.753 22.111 154.163 22.507C154.581 22.8957 154.809 23.5007 154.845 24.322C153.877 24.454 152.931 24.5933 152.007 24.74C151.083 24.8793 150.277 25.048 149.587 25.246C148.671 25.5393 147.974 25.9757 147.497 26.555C147.021 27.1343 146.782 27.8713 146.782 28.766C146.782 29.4113 146.933 30.0053 147.233 30.548C147.541 31.0833 147.992 31.516 148.586 31.846C149.188 32.1687 149.925 32.33 150.797 32.33ZM151.204 30.449C150.471 30.449 149.928 30.2803 149.576 29.943C149.232 29.6057 149.059 29.206 149.059 28.744C149.059 28.2747 149.213 27.9043 149.521 27.633C149.837 27.3617 150.229 27.1453 150.698 26.984C151.197 26.8373 151.784 26.709 152.458 26.599C153.14 26.489 153.929 26.368 154.823 26.236C154.816 26.5147 154.798 26.8263 154.768 27.171C154.739 27.5157 154.677 27.8237 154.581 28.095C154.493 28.4837 154.306 28.8577 154.02 29.217C153.742 29.5763 153.364 29.8733 152.887 30.108C152.418 30.3353 151.857 30.449 151.204 30.449ZM159.968 32H162.289V26.005C162.289 25.3083 162.399 24.663 162.619 24.069C162.839 23.475 163.227 22.9983 163.785 22.639C164.181 22.3823 164.617 22.232 165.094 22.188C165.57 22.144 165.999 22.1733 166.381 22.276V20.12C165.845 20.0173 165.277 20.021 164.676 20.131C164.082 20.241 163.561 20.461 163.114 20.791C162.674 21.0843 162.307 21.4913 162.014 22.012V20.12H159.968V32ZM172.98 32.33C173.728 32.33 174.395 32.2053 174.982 31.956C175.576 31.7067 176.089 31.3583 176.522 30.911V32H178.568V16.16H176.258V20.934C175.847 20.5673 175.37 20.285 174.828 20.087C174.285 19.889 173.684 19.79 173.024 19.79C171.909 19.79 170.945 20.065 170.131 20.615C169.324 21.1577 168.701 21.902 168.261 22.848C167.821 23.7867 167.601 24.8537 167.601 26.049C167.601 27.237 167.817 28.304 168.25 29.25C168.69 30.196 169.313 30.9477 170.12 31.505C170.926 32.055 171.88 32.33 172.98 32.33ZM173.299 30.251C172.565 30.251 171.957 30.064 171.473 29.69C170.989 29.316 170.629 28.8137 170.395 28.183C170.16 27.545 170.043 26.8337 170.043 26.049C170.043 25.2717 170.16 24.5677 170.395 23.937C170.637 23.3063 171.003 22.804 171.495 22.43C171.986 22.056 172.613 21.869 173.376 21.869C174.461 21.869 175.257 22.2577 175.763 23.035C176.269 23.8123 176.522 24.817 176.522 26.049C176.522 27.281 176.269 28.2893 175.763 29.074C175.257 29.8587 174.435 30.251 173.299 30.251Z" fill="white"/>
<rect x="0.5" y="0.5" width="190" height="47" stroke="white"/>
</svg>
