<svg width="955" height="715" viewBox="0 0 955 715" fill="none" xmlns="http://www.w3.org/2000/svg">
<path d="M359.204 715C557.587 715 718.409 701.593 718.409 685.055C718.409 668.516 557.587 655.109 359.204 655.109C160.821 655.109 0 668.516 0 685.055C0 701.593 160.821 715 359.204 715Z" fill="#3F3D56"/>
<path d="M134.828 663.883C134.63 663.537 129.958 655.212 128.338 637.925C126.852 622.065 127.807 595.332 140.8 558.042C165.414 487.398 135.127 430.399 134.818 429.831L136.312 428.906C136.391 429.05 144.206 443.583 148.822 466.724C154.923 497.404 152.701 529.303 142.419 558.685C117.847 629.208 136.115 662.593 136.302 662.922L134.828 663.883Z" fill="#3F3D56"/>
<path d="M125.203 425.683C131.403 425.683 136.429 420.32 136.429 413.705C136.429 407.09 131.403 401.727 125.203 401.727C119.004 401.727 113.978 407.09 113.978 413.705C113.978 420.32 119.004 425.683 125.203 425.683Z" fill="#00D1B2"/>
<path d="M160.606 469.91C166.805 469.91 171.831 464.547 171.831 457.932C171.831 451.316 166.805 445.954 160.606 445.954C154.406 445.954 149.381 451.316 149.381 457.932C149.381 464.547 154.406 469.91 160.606 469.91Z" fill="#3F3D56"/>
<path d="M136.429 499.394C142.628 499.394 147.654 494.032 147.654 487.416C147.654 480.801 142.628 475.438 136.429 475.438C130.229 475.438 125.203 480.801 125.203 487.416C125.203 494.032 130.229 499.394 136.429 499.394Z" fill="#00D1B2"/>
<path d="M165.787 524.272C171.986 524.272 177.012 518.909 177.012 512.294C177.012 505.678 171.986 500.316 165.787 500.316C159.587 500.316 154.562 505.678 154.562 512.294C154.562 518.909 159.587 524.272 165.787 524.272Z" fill="#00D1B2"/>
<path d="M127.794 562.97C133.993 562.97 139.019 557.608 139.019 550.992C139.019 544.377 133.993 539.014 127.794 539.014C121.594 539.014 116.569 544.377 116.569 550.992C116.569 557.608 121.594 562.97 127.794 562.97Z" fill="#3F3D56"/>
<path d="M141.609 664.323C141.609 664.323 130.384 634.839 164.06 612.726L141.609 664.323Z" fill="#3F3D56"/>
<path d="M127.804 663.789C127.804 663.789 122.696 632.434 83.1554 632.703L127.804 663.789Z" fill="#3F3D56"/>
<path d="M319.485 142.816C319.485 142.816 320.348 166.772 315.167 172.3C309.986 177.829 341.071 197.178 341.071 197.178L359.204 166.772C359.204 166.772 352.297 153.872 354.023 142.816H319.485Z" fill="#C77682"/>
<path d="M263.791 629.771V652.806L290.558 654.649L288.831 629.771H263.791Z" fill="#A0616A"/>
<path d="M410.581 629.771V652.806L383.813 654.649L385.54 629.771H410.581Z" fill="#A0616A"/>
<path d="M277.606 374.546C277.606 374.546 263.791 427.986 272.425 470.37C272.425 470.37 272.425 488.798 275.879 492.484C279.333 496.169 280.197 496.169 277.606 498.012C275.016 499.855 269.835 504.462 272.425 507.226C275.016 509.99 275.879 513.676 274.152 514.597C272.425 515.519 270.698 517.361 272.425 521.047C274.152 524.733 263.791 623.322 263.791 623.322C263.791 623.322 253.429 635.3 263.791 636.221C274.152 637.142 291.422 641.749 293.149 634.378C294.876 627.007 308.691 522.89 308.691 522.89C308.691 522.89 310.418 520.126 313.872 515.519C317.326 510.912 315.599 509.069 315.599 508.148C315.599 507.226 333.732 419.694 333.732 419.694C333.732 419.694 360.5 519.204 363.09 521.047C365.68 522.89 366.544 522.89 366.544 525.654C366.544 528.418 364.817 530.261 366.544 533.025C367.487 534.508 368.352 536.046 369.134 537.632C369.134 537.632 373.452 640.828 382.086 640.828C390.721 640.828 416.625 638.985 414.035 630.693C411.444 622.4 407.991 624.243 407.991 624.243C407.991 624.243 414.035 539.475 399.356 514.597V494.327C399.356 492.484 400.219 491.562 399.356 489.72C398.492 487.877 401.946 378.231 385.54 371.781C369.134 365.332 277.606 374.546 277.606 374.546Z" fill="#D0CDE1"/>
<path d="M280.197 646.356C280.197 646.356 275.879 638.985 269.835 638.985C263.791 638.985 259.473 646.356 259.473 646.356L243.931 669.391C243.931 669.391 221.481 684.133 230.115 692.426C238.75 700.718 262.064 696.111 262.064 696.111C262.064 696.111 281.06 681.369 283.651 680.448C286.241 679.526 293.149 674.919 294.012 673.998C294.876 673.077 292.285 639.906 289.695 642.21C287.104 644.513 285.377 651.885 280.197 646.356Z" fill="#2F2E41"/>
<path d="M394.175 646.356C394.175 646.356 398.492 638.985 404.537 638.985C410.581 638.985 414.898 646.356 414.898 646.356L430.441 669.391C430.441 669.391 452.891 684.133 444.256 692.426C435.622 700.718 412.308 696.111 412.308 696.111C412.308 696.111 393.311 681.369 390.721 680.448C388.131 679.526 381.223 674.919 380.359 673.998C379.496 673.077 382.086 639.906 384.677 642.21C387.267 644.513 388.994 651.885 394.175 646.356Z" fill="#2F2E41"/>
<path d="M334.595 156.176C351.763 156.176 365.68 141.325 365.68 123.006C365.68 104.686 351.763 89.8357 334.595 89.8357C317.428 89.8357 303.51 104.686 303.51 123.006C303.51 141.325 317.428 156.176 334.595 156.176Z" fill="#C77682"/>
<path d="M326.392 175.064C326.392 175.064 320.583 175.406 317.875 166.021L271.994 201.785L290.99 256.147C290.99 256.147 293.581 285.631 290.99 293.924C288.4 302.217 286.673 308.666 286.673 312.352C286.673 316.037 268.54 377.771 275.448 380.535C282.355 383.299 387.699 394.356 390.289 375.928C392.88 357.5 381.655 235.876 381.655 235.876L399.788 188.885L355.703 158.114C355.703 158.114 351.433 176.907 326.392 175.064Z" fill="#3F3D56"/>
<path d="M268.972 260.293L265.518 288.856C265.518 288.856 251.702 319.262 255.156 359.804L254.293 386.524C254.293 386.524 245.658 432.594 262.927 434.436C280.197 436.279 268.972 383.76 268.972 383.76L278.47 358.882L288.193 303.542L293.149 264.9L268.972 260.293Z" fill="#C77682"/>
<path d="M284.514 200.403L271.994 201.785C271.994 201.785 263.791 266.743 266.381 266.743C268.972 266.743 298.33 274.114 299.193 272.271C300.057 270.428 284.514 200.403 284.514 200.403Z" fill="#3F3D56"/>
<path d="M310.611 89.0041L305.008 86.8297C305.008 86.8297 316.724 74.3273 333.026 75.4145L328.441 70.5222C328.441 70.5222 339.648 66.1735 349.836 77.5888C355.192 83.5895 361.389 90.643 365.252 98.5888H371.253L368.748 103.934L377.514 109.279L368.517 108.319C369.369 112.934 369.076 117.706 367.666 122.163L365.628 128.142C365.628 128.142 357.477 110.747 357.477 108.573V114.009C357.477 114.009 351.874 109.117 351.874 105.855L348.817 109.66L347.289 103.681L328.441 109.66L331.497 104.768L319.781 106.399L324.366 100.419C324.366 100.419 311.121 107.486 310.611 113.465C310.102 119.445 303.48 127.055 303.48 127.055L300.423 121.619C300.423 121.619 295.838 97.1578 310.611 89.0041Z" fill="#2F2E41"/>
<path d="M392.232 561.588C424.064 561.588 449.869 522.399 449.869 474.056C449.869 425.713 424.064 386.524 392.232 386.524C360.4 386.524 334.595 425.713 334.595 474.056C334.595 522.399 360.4 561.588 392.232 561.588Z" fill="#3F3D56"/>
<path opacity="0.1" d="M392.232 561.588C424.064 561.588 449.869 522.399 449.869 474.056C449.869 425.713 424.064 386.524 392.232 386.524C360.4 386.524 334.595 425.713 334.595 474.056C334.595 522.399 360.4 561.588 392.232 561.588Z" fill="black"/>
<path d="M400.003 561.588C431.835 561.588 457.64 522.399 457.64 474.056C457.64 425.713 431.835 386.524 400.003 386.524C368.171 386.524 342.367 425.713 342.367 474.056C342.367 522.399 368.171 561.588 400.003 561.588Z" fill="#3F3D56"/>
<path opacity="0.1" d="M400.003 549.131C427.305 549.131 449.437 515.519 449.437 474.056C449.437 432.594 427.305 398.982 400.003 398.982C372.702 398.982 350.57 432.594 350.57 474.056C350.57 515.519 372.702 549.131 400.003 549.131Z" fill="black"/>
<path d="M399.575 510.219V501.406C395.4 501.319 391.081 499.748 388.562 497.567L390.29 491.721C393.283 494.115 396.914 495.429 400.655 495.472C405.765 495.472 409.22 491.895 409.22 486.922C409.22 482.123 406.413 479.156 401.087 476.538C393.745 473.048 389.21 469.034 389.21 461.443C389.21 454.201 393.457 448.704 400.079 447.395V438.583H404.542V447.046C407.869 447.095 411.115 448.154 413.899 450.1L412.099 455.859C409.429 453.909 406.266 452.874 403.03 452.892C397.488 452.892 395.4 456.906 395.4 460.396C395.4 464.933 398.064 467.202 404.326 470.343C411.739 474.008 415.483 478.545 415.483 486.311C415.483 493.204 411.524 499.661 404.11 501.144V510.219H399.575Z" fill="#00D1B2"/>
<path d="M412.308 250.158V287.935C412.308 287.935 413.171 334.005 398.492 362.568L390.721 380.996C390.721 380.996 375.179 434.436 365.68 417.851C356.182 401.266 376.042 373.624 376.042 373.624L387.281 303.489L380.359 256.608L412.308 250.158Z" fill="#C77682"/>
<path d="M382.95 186.582L399.788 188.885C399.788 188.885 420.079 254.765 414.898 257.529C409.717 260.293 376.042 262.136 376.042 262.136L382.95 186.582Z" fill="#3F3D56"/>
<path d="M905.782 46.3081H510.312V518.743H905.782V46.3081Z" fill="#F2F2F2"/>
<path d="M582.844 402.477H572.482V400.635H582.844V402.477ZM562.12 402.477H551.759V400.635H562.12V402.477ZM541.397 402.477H531.035V400.635H541.397V402.477ZM520.674 402.477H510.312V400.635H520.674V402.477Z" fill="#E6E6E6"/>
<path d="M727.907 315.116H717.545V313.273H727.907V315.116ZM707.184 315.116H696.822V313.273H707.184V315.116ZM686.46 315.116H676.099V313.273H686.46V315.116ZM665.737 315.116H655.375V313.273H665.737V315.116ZM645.014 315.116H634.652V313.273H645.014V315.116ZM624.29 315.116H613.929V313.273H624.29V315.116ZM603.567 315.116H593.205V313.273H603.567V315.116ZM582.844 315.116H572.482V313.273H582.844V315.116ZM562.12 315.116H551.759V313.273H562.12V315.116ZM541.397 315.116H531.035V313.273H541.397V315.116ZM520.674 315.116H510.312V313.273H520.674V315.116Z" fill="#E6E6E6"/>
<path d="M935.14 260.754H924.778V258.911H935.14V260.754ZM914.417 260.754H904.055V258.911H914.417V260.754ZM893.693 260.754H883.332V258.911H893.693V260.754ZM872.97 260.754H862.608V258.911H872.97V260.754ZM852.247 260.754H841.885V258.911H852.247V260.754ZM831.523 260.754H821.162V258.911H831.523V260.754ZM810.8 260.754H800.438V258.911H810.8V260.754ZM790.077 260.754H779.715V258.911H790.077V260.754ZM769.353 260.754H758.992V258.911H769.353V260.754ZM748.63 260.754H738.268V258.911H748.63V260.754ZM727.907 260.754H717.545V258.911H727.907V260.754ZM707.184 260.754H696.822V258.911H707.184V260.754ZM686.46 260.754H676.099V258.911H686.46V260.754ZM665.737 260.754H655.375V258.911H665.737V260.754ZM645.014 260.754H634.652V258.911H645.014V260.754ZM624.29 260.754H613.929V258.911H624.29V260.754ZM603.567 260.754H593.205V258.911H603.567V260.754ZM582.844 260.754H572.482V258.911H582.844V260.754ZM562.12 260.754H551.759V258.911H562.12V260.754ZM541.397 260.754H531.035V258.911H541.397V260.754ZM520.674 260.754H510.312V258.911H520.674V260.754Z" fill="#E6E6E6"/>
<path d="M588.888 0.714844H587.161V6.24319H588.888V0.714844Z" fill="#E6E6E6"/>
<path d="M588.888 419.417H587.161V408.544H588.888V419.417ZM588.888 397.671H587.161V386.797H588.888V397.671ZM588.888 375.924H587.161V365.052H588.888V375.924ZM588.888 354.179H587.161V343.306H588.888V354.179ZM588.888 332.433H587.161V321.559H588.888V332.433ZM588.888 310.686H587.161V299.814H588.888V310.686ZM588.888 288.941H587.161V278.068H588.888V288.941ZM588.888 267.195H587.161V256.322H588.888V267.195ZM588.888 245.448H587.161V234.576H588.888V245.448ZM588.888 223.703H587.161V212.83H588.888V223.703ZM588.888 201.957H587.161V191.084H588.888V201.957ZM588.888 180.211H587.161V169.338H588.888V180.211ZM588.888 158.465H587.161V147.592H588.888V158.465ZM588.888 136.719H587.161V125.846H588.888V136.719ZM588.888 114.973H587.161V104.1H588.888V114.973ZM588.888 93.2271H587.161V82.3539H588.888V93.2271ZM588.888 71.4808H587.161V60.6081H588.888V71.4808ZM588.888 49.7349H587.161V38.8618H588.888V49.7349ZM588.888 27.9891H587.161V17.116H588.888V27.9891Z" fill="#E6E6E6"/>
<path d="M588.888 430.29H587.161V435.818H588.888V430.29Z" fill="#E6E6E6"/>
<path d="M739.132 0.714844H737.405V6.24319H739.132V0.714844Z" fill="#E6E6E6"/>
<path d="M739.132 335.469H737.405V324.494H739.132V335.469ZM739.132 313.521H737.405V302.547H739.132V313.521ZM739.132 291.572H737.405V280.598H739.132V291.572ZM739.132 269.624H737.405V258.649H739.132V269.624ZM739.132 247.675H737.405V236.701H739.132V247.675ZM739.132 225.727H737.405V214.753H739.132V225.727ZM739.132 203.779H737.405V192.804H739.132V203.779ZM739.132 181.83H737.405V170.856H739.132V181.83ZM739.132 159.882H737.405V148.907H739.132V159.882ZM739.132 137.933H737.405V126.959H739.132V137.933ZM739.132 115.985H737.405V105.011H739.132V115.985ZM739.132 94.0363H737.405V83.0624H739.132V94.0363ZM739.132 72.088H737.405V61.1137H739.132V72.088ZM739.132 50.1397H737.405V39.1654H739.132V50.1397ZM739.132 28.1914H737.405V17.217H739.132V28.1914Z" fill="#E6E6E6"/>
<path d="M739.132 346.443H737.405V351.972H739.132V346.443Z" fill="#E6E6E6"/>
<path d="M510.312 518.743L588.888 434.897L624.722 473.135L738.268 351.972L811.664 430.29L943.775 289.317V518.743H510.312Z" fill="#00D1B2"/>
<path d="M944.638 519.665H509.448V0H944.638V519.665ZM511.175 517.822H942.911V1.84278H511.175V517.822Z" fill="#3F3D56"/>
<path d="M588.024 411.862C594.224 411.862 599.25 406.499 599.25 399.884C599.25 393.269 594.224 387.906 588.024 387.906C581.825 387.906 576.799 393.269 576.799 399.884C576.799 406.499 581.825 411.862 588.024 411.862Z" fill="#3F3D56"/>
<path d="M738.269 326.173C744.468 326.173 749.494 320.81 749.494 314.195C749.494 307.579 744.468 302.217 738.269 302.217C732.069 302.217 727.043 307.579 727.043 314.195C727.043 320.81 732.069 326.173 738.269 326.173Z" fill="#3F3D56"/>
<path d="M943.775 271.811C949.974 271.811 955 266.448 955 259.833C955 253.217 949.974 247.854 943.775 247.854C937.575 247.854 932.55 253.217 932.55 259.833C932.55 266.448 937.575 271.811 943.775 271.811Z" fill="#3F3D56"/>
<path d="M865.199 73.7114C860.176 75.2664 853.438 76.4676 848.45 76.0423L854.959 80.6561L548.655 322.668L549.682 324.149L855.986 82.1368L858.223 90.1277C859.298 84.9124 862.34 78.386 865.199 73.7114Z" fill="#3F3D56"/>
</svg>
