<svg width="88" height="88" viewBox="0 0 88 88" fill="none" xmlns="http://www.w3.org/2000/svg">
<g filter="url(#filter0_d)">
<circle cx="44" cy="40" r="40" fill="#64FB9B"/>
</g>
<path d="M39.688 42.36C40.664 42.568 41.448 43.056 42.04 43.824C42.632 44.576 42.928 45.44 42.928 46.416C42.928 47.824 42.432 48.944 41.44 49.776C40.464 50.592 39.096 51 37.336 51H29.488V34.152H37.072C38.784 34.152 40.12 34.544 41.08 35.328C42.056 36.112 42.544 37.176 42.544 38.52C42.544 39.512 42.28 40.336 41.752 40.992C41.24 41.648 40.552 42.104 39.688 42.36ZM33.592 40.968H36.28C36.952 40.968 37.464 40.824 37.816 40.536C38.184 40.232 38.368 39.792 38.368 39.216C38.368 38.64 38.184 38.2 37.816 37.896C37.464 37.592 36.952 37.44 36.28 37.44H33.592V40.968ZM36.616 47.688C37.304 47.688 37.832 47.536 38.2 47.232C38.584 46.912 38.776 46.456 38.776 45.864C38.776 45.272 38.576 44.808 38.176 44.472C37.792 44.136 37.256 43.968 36.568 43.968H33.592V47.688H36.616ZM49.4123 37.44V40.848H54.9083V44.016H49.4123V47.712H55.6283V51H45.3083V34.152H55.6283V37.44H49.4123Z" fill="black"/>
<defs>
<filter id="filter0_d" x="0" y="0" width="88" height="88" filterUnits="userSpaceOnUse" color-interpolation-filters="sRGB">
<feFlood flood-opacity="0" result="BackgroundImageFix"/>
<feColorMatrix in="SourceAlpha" type="matrix" values="0 0 0 0 0 0 0 0 0 0 0 0 0 0 0 0 0 0 127 0"/>
<feOffset dy="4"/>
<feGaussianBlur stdDeviation="2"/>
<feColorMatrix type="matrix" values="0 0 0 0 0 0 0 0 0 0 0 0 0 0 0 0 0 0 0.25 0"/>
<feBlend mode="normal" in2="BackgroundImageFix" result="effect1_dropShadow"/>
<feBlend mode="normal" in="SourceGraphic" in2="effect1_dropShadow" result="shape"/>
</filter>
</defs>
</svg>
