<svg id="Capa_1" enable-background="new 0 0 512 512" height="512" viewBox="0 0 512 512" width="512" xmlns="http://www.w3.org/2000/svg"><path d="m417.945 327.079c-1.313 0-2.643-.345-3.851-1.069l-145.976-87.548c-3.553-2.131-4.705-6.737-2.574-10.29 2.13-3.553 6.737-4.704 10.289-2.575l145.976 87.548c3.553 2.131 4.705 6.737 2.574 10.29-1.404 2.344-3.89 3.644-6.438 3.644z" fill="#efecef"/><path d="m95.341 294.187c-2.977 0-5.793-1.784-6.966-4.717-1.538-3.846.333-8.211 4.18-9.749l143.364-57.322c3.847-1.539 8.21.333 9.748 4.179s-.333 8.211-4.18 9.749l-143.364 57.322c-.913.365-1.855.538-2.782.538z" fill="#efecef"/><path d="m140.683 402.067h-123.6c-2.607 0-4.721-2.114-4.721-4.721v-27.203c0-2.607 2.114-4.721 4.721-4.721h123.6c2.607 0 4.721 2.114 4.721 4.721v27.203c-.001 2.608-2.114 4.721-4.721 4.721z" fill="#f6e781"/><path d="m128.321 438.711h-123.6c-2.607 0-4.721-2.114-4.721-4.721v-27.203c0-2.607 2.114-4.721 4.721-4.721h123.6c2.607 0 4.721 2.114 4.721 4.721v27.203c-.001 2.608-2.114 4.721-4.721 4.721z" fill="#f6e781"/><path d="m133.471 475.356h-123.599c-2.607 0-4.721-2.114-4.721-4.721v-27.203c0-2.607 2.114-4.721 4.721-4.721h123.6c2.607 0 4.721 2.114 4.721 4.721v27.203c-.001 2.607-2.114 4.721-4.722 4.721z" fill="#f6e781"/><path d="m138.622 512h-123.6c-2.607 0-4.721-2.114-4.721-4.721v-27.203c0-2.607 2.114-4.721 4.721-4.721h123.6c2.607 0 4.721 2.114 4.721 4.721v27.203c0 2.607-2.113 4.721-4.721 4.721z" fill="#f6e781"/><path d="m322.951 402.067h-123.6c-2.607 0-4.721-2.114-4.721-4.721v-27.203c0-2.607 2.114-4.721 4.721-4.721h123.6c2.607 0 4.721 2.114 4.721 4.721v27.203c0 2.608-2.114 4.721-4.721 4.721z" fill="#f6e781"/><path d="m317.8 438.711h-123.6c-2.607 0-4.721-2.114-4.721-4.721v-27.203c0-2.607 2.114-4.721 4.721-4.721h123.6c2.607 0 4.721 2.114 4.721 4.721v27.203c0 2.608-2.114 4.721-4.721 4.721z" fill="#f6e781"/><path d="m312.649 475.356h-123.6c-2.607 0-4.721-2.114-4.721-4.721v-27.203c0-2.607 2.114-4.721 4.721-4.721h123.6c2.607 0 4.721 2.114 4.721 4.721v27.203c0 2.607-2.114 4.721-4.721 4.721z" fill="#f6e781"/><path d="m322.951 512h-123.6c-2.607 0-4.721-2.114-4.721-4.721v-27.203c0-2.607 2.114-4.721 4.721-4.721h123.6c2.607 0 4.721 2.114 4.721 4.721v27.203c0 2.607-2.114 4.721-4.721 4.721z" fill="#f6e781"/><path d="m319.86 328.779h-123.6c-2.607 0-4.721-2.114-4.721-4.721v-27.203c0-2.607 2.114-4.721 4.721-4.721h123.6c2.607 0 4.721 2.114 4.721 4.721v27.203c0 2.607-2.114 4.721-4.721 4.721z" fill="#f6e781"/><path d="m312.649 365.423h-123.6c-2.607 0-4.721-2.114-4.721-4.721v-27.203c0-2.607 2.114-4.721 4.721-4.721h123.6c2.607 0 4.721 2.114 4.721 4.721v27.203c0 2.607-2.114 4.721-4.721 4.721z" fill="#f6e781"/><path d="m496.978 438.711h-123.6c-2.607 0-4.721-2.114-4.721-4.721v-27.203c0-2.607 2.114-4.721 4.721-4.721h123.6c2.607 0 4.721 2.114 4.721 4.721v27.203c-.001 2.608-2.114 4.721-4.721 4.721z" fill="#f6e781"/><path d="m507.279 475.356h-123.6c-2.607 0-4.721-2.114-4.721-4.721v-27.203c0-2.607 2.114-4.721 4.721-4.721h123.6c2.607 0 4.721 2.114 4.721 4.721v27.203c0 2.607-2.114 4.721-4.721 4.721z" fill="#f6e781"/><path d="m491.827 512h-123.6c-2.607 0-4.721-2.114-4.721-4.721v-27.203c0-2.607 2.114-4.721 4.721-4.721h123.6c2.607 0 4.721 2.114 4.721 4.721v27.203c-.001 2.607-2.114 4.721-4.721 4.721z" fill="#f6e781"/><path d="m140.683 365.423h-36.487v11.32c0 2.607-2.114 4.721-4.721 4.721h-87.113v15.883c0 2.607 2.114 4.721 4.721 4.721h123.6c2.607 0 4.721-2.113 4.721-4.721v-27.203c-.001-2.608-2.114-4.721-4.721-4.721z" fill="#f4dd45"/><path d="m128.321 402.067h-36.487v11.32c0 2.607-2.114 4.721-4.721 4.721h-87.113v15.883c0 2.607 2.113 4.721 4.721 4.721h123.6c2.607 0 4.721-2.114 4.721-4.721v-27.203c-.001-2.607-2.114-4.721-4.721-4.721z" fill="#f4dd45"/><path d="m133.471 438.712h-36.486v11.32c0 2.607-2.114 4.721-4.721 4.721h-87.113v15.883c0 2.607 2.114 4.721 4.721 4.721h123.6c2.607 0 4.721-2.113 4.721-4.721v-27.203c-.001-2.608-2.114-4.721-4.722-4.721z" fill="#f4dd45"/><path d="m138.622 475.356h-36.487v11.32c0 2.607-2.114 4.721-4.721 4.721h-87.112v15.883c0 2.607 2.114 4.721 4.721 4.721h123.6c2.607 0 4.721-2.113 4.721-4.721v-27.203c-.001-2.608-2.114-4.721-4.722-4.721z" fill="#f4dd45"/><path d="m322.951 365.423h-36.487v11.32c0 2.607-2.114 4.721-4.721 4.721h-87.113v15.883c0 2.607 2.113 4.721 4.721 4.721h123.6c2.607 0 4.721-2.113 4.721-4.721v-27.203c0-2.608-2.114-4.721-4.721-4.721z" fill="#f4dd45"/><path d="m317.8 402.067h-36.487v11.32c0 2.607-2.114 4.721-4.721 4.721h-87.113v15.883c0 2.607 2.113 4.721 4.721 4.721h123.6c2.607 0 4.721-2.114 4.721-4.721v-27.203c0-2.607-2.114-4.721-4.721-4.721z" fill="#f4dd45"/><path d="m312.649 438.712h-36.487v11.32c0 2.607-2.114 4.721-4.721 4.721h-87.113v15.883c0 2.607 2.113 4.721 4.721 4.721h123.6c2.607 0 4.721-2.113 4.721-4.721v-27.203c0-2.608-2.114-4.721-4.721-4.721z" fill="#f4dd45"/><path d="m322.951 475.356h-36.487v11.32c0 2.607-2.114 4.721-4.721 4.721h-87.113v15.883c0 2.607 2.113 4.721 4.721 4.721h123.6c2.607 0 4.721-2.113 4.721-4.721v-27.203c0-2.608-2.114-4.721-4.721-4.721z" fill="#f4dd45"/><path d="m319.86 292.134h-36.487v11.32c0 2.607-2.114 4.721-4.721 4.721h-87.112v15.883c0 2.607 2.113 4.721 4.721 4.721h123.6c2.607 0 4.721-2.114 4.721-4.721v-27.203c-.001-2.607-2.114-4.721-4.722-4.721z" fill="#f4dd45"/><path d="m312.649 328.779h-36.487v11.32c0 2.607-2.114 4.721-4.721 4.721h-87.113v15.883c0 2.607 2.113 4.721 4.721 4.721h123.6c2.607 0 4.721-2.114 4.721-4.721v-27.203c0-2.608-2.114-4.721-4.721-4.721z" fill="#f4dd45"/><path d="m496.977 402.067h-36.487v11.32c0 2.607-2.114 4.721-4.721 4.721h-87.113v15.883c0 2.607 2.113 4.721 4.721 4.721h123.6c2.607 0 4.721-2.114 4.721-4.721v-27.203c0-2.607-2.113-4.721-4.721-4.721z" fill="#f4dd45"/><path d="m507.279 438.712h-36.487v11.32c0 2.607-2.114 4.721-4.721 4.721h-87.113v15.883c0 2.607 2.113 4.721 4.721 4.721h123.6c2.607 0 4.721-2.113 4.721-4.721v-27.203c0-2.608-2.113-4.721-4.721-4.721z" fill="#f4dd45"/><path d="m491.827 475.356h-36.487v11.32c0 2.607-2.114 4.721-4.721 4.721h-87.113v15.883c0 2.607 2.113 4.721 4.721 4.721h123.6c2.607 0 4.721-2.113 4.721-4.721v-27.203c-.001-2.608-2.114-4.721-4.721-4.721z" fill="#f4dd45"/><path d="m78.072 267.46c-14.407 0-26.129 11.721-26.129 26.128 0 14.408 11.722 26.129 26.129 26.129s26.128-11.721 26.128-26.129c0-14.407-11.721-26.128-26.128-26.128z" fill="#f6e781"/><path d="m433.928 303.031c-14.407 0-26.128 11.721-26.128 26.128s11.721 26.128 26.128 26.128 26.129-11.721 26.129-26.128-11.722-26.128-26.129-26.128z" fill="#e4989d"/><circle cx="256" cy="222.447" fill="#80b4fb" r="26.129"/><path d="m120.388 165.489c0-20.417-16.61-37.026-37.026-37.026h-10.58c-6.631 0-12.026-5.395-12.026-12.026s5.395-12.026 12.026-12.026h10.58c4.846 0 9.198 2.885 11.086 7.349 2.689 6.358 10.027 9.332 16.382 6.644 6.358-2.689 9.333-10.024 6.644-16.382-4.854-11.475-14.998-19.558-26.901-21.907v-9.472c0-6.904-5.596-12.5-12.5-12.5s-12.5 5.596-12.5 12.5v9.474c-16.977 3.364-29.816 18.371-29.816 36.321 0 20.416 16.61 37.026 37.026 37.026h10.58c6.631 0 12.026 5.395 12.026 12.026s-5.395 12.026-12.026 12.026h-10.58c-4.997 0-9.398-3.007-11.212-7.66-2.509-6.432-9.756-9.613-16.188-7.104-6.432 2.508-9.612 9.756-7.104 16.188 4.692 12.032 15.001 20.487 27.294 22.884v9.462c0 6.904 5.596 12.5 12.5 12.5s12.5-5.596 12.5-12.5v-9.474c16.976-3.367 29.815-18.373 29.815-36.323z" fill="#90dfc3"/><path d="m298.316 107.348c0-20.417-16.61-37.026-37.026-37.026h-10.58c-6.631 0-12.026-5.395-12.026-12.026s5.395-12.026 12.026-12.026h10.58c4.846 0 9.198 2.885 11.086 7.349 2.689 6.358 10.027 9.332 16.382 6.644 6.358-2.689 9.333-10.024 6.644-16.382-4.854-11.475-14.998-19.558-26.901-21.907v-9.474c-.001-6.904-5.597-12.5-12.501-12.5s-12.5 5.596-12.5 12.5v9.474c-16.977 3.364-29.816 18.371-29.816 36.321 0 20.416 16.61 37.026 37.026 37.026h10.58c6.631 0 12.026 5.395 12.026 12.026s-5.395 12.026-12.026 12.026h-10.58c-4.997 0-9.398-3.007-11.212-7.66-2.509-6.432-9.756-9.613-16.188-7.104-6.432 2.508-9.612 9.756-7.104 16.188 4.692 12.032 15.001 20.487 27.294 22.884v9.462c0 6.904 5.596 12.5 12.5 12.5s12.5-5.596 12.5-12.5v-9.474c16.977-3.365 29.816-18.372 29.816-36.321z" fill="#90dfc3"/><path d="m476.244 201.06c0-20.417-16.61-37.026-37.026-37.026h-10.58c-6.631 0-12.026-5.395-12.026-12.026s5.395-12.026 12.026-12.026h10.58c4.846 0 9.198 2.885 11.086 7.349 2.689 6.358 10.027 9.332 16.382 6.644 6.358-2.689 9.333-10.024 6.644-16.382-4.854-11.475-14.998-19.558-26.901-21.907v-9.472c0-6.904-5.596-12.5-12.5-12.5s-12.5 5.596-12.5 12.5v9.474c-16.977 3.364-29.816 18.371-29.816 36.321 0 20.416 16.61 37.026 37.026 37.026h10.58c6.631 0 12.026 5.395 12.026 12.026s-5.395 12.026-12.026 12.026h-10.58c-4.997 0-9.398-3.007-11.212-7.66-2.509-6.432-9.756-9.613-16.188-7.104-6.432 2.508-9.612 9.756-7.104 16.188 4.692 12.032 15.001 20.487 27.294 22.884v9.462c0 6.904 5.596 12.5 12.5 12.5s12.5-5.596 12.5-12.5v-9.474c16.976-3.367 29.815-18.374 29.815-36.323z" fill="#90dfc3"/><g fill="#f1d333"><path d="m412.219 456.739c-4.268 0-7.726 3.459-7.726 7.726v10.89h15.453v-10.89c0-4.266-3.459-7.726-7.727-7.726z"/><path d="m445.479 456.739c-4.268 0-7.726 3.459-7.726 7.726v10.89h15.453v-10.89c-.001-4.266-3.46-7.726-7.727-7.726z"/><path d="m478.739 456.739c-4.268 0-7.726 3.459-7.726 7.726v10.89h15.453v-10.89c0-4.266-3.459-7.726-7.727-7.726z"/><path d="m396.767 493.384c-4.268 0-7.726 3.459-7.726 7.726v10.89h15.453v-10.89c-.001-4.267-3.46-7.726-7.727-7.726z"/><path d="m430.026 493.384c-4.268 0-7.726 3.459-7.726 7.726v10.89h15.453v-10.89c0-4.267-3.459-7.726-7.727-7.726z"/><path d="m463.287 493.384c-4.268 0-7.726 3.459-7.726 7.726v10.89h15.453v-10.89c-.001-4.267-3.46-7.726-7.727-7.726z"/><path d="m99.781 420.096c-4.268 0-7.726 3.459-7.726 7.726v10.89h15.453v-10.89c-.001-4.267-3.46-7.726-7.727-7.726z"/><path d="m40.987 438.711v-10.889c0-4.267-3.459-7.726-7.726-7.726s-7.726 3.459-7.726 7.726v10.89z"/><path d="m74.247 438.711v-10.889c0-4.267-3.459-7.726-7.726-7.726s-7.726 3.459-7.726 7.726v10.89z"/><path d="m104.932 456.739c-4.268 0-7.726 3.459-7.726 7.726v10.89h15.453v-10.89c-.001-4.266-3.46-7.726-7.727-7.726z"/><path d="m38.411 456.739c-4.268 0-7.726 3.459-7.726 7.726v10.89h15.453v-10.89c0-4.266-3.459-7.726-7.727-7.726z"/><path d="m71.672 456.739c-4.268 0-7.726 3.459-7.726 7.726v10.89h15.453v-10.89c-.001-4.266-3.459-7.726-7.727-7.726z"/><path d="m110.082 493.384c-4.268 0-7.726 3.459-7.726 7.726v10.89h15.453v-10.89c0-4.267-3.459-7.726-7.727-7.726z"/><path d="m43.562 493.384c-4.268 0-7.726 3.459-7.726 7.726v10.89h15.453v-10.89c0-4.267-3.459-7.726-7.727-7.726z"/><path d="m76.823 493.384c-4.268 0-7.726 3.459-7.726 7.726v10.89h15.453v-10.89c-.001-4.267-3.459-7.726-7.727-7.726z"/><path d="m294.411 383.451c-4.268 0-7.726 3.459-7.726 7.726v10.89h15.453v-10.89c0-4.267-3.459-7.726-7.727-7.726z"/><path d="m268.877 391.178c0-4.267-3.459-7.726-7.726-7.726s-7.726 3.459-7.726 7.726v10.89h15.453v-10.89z"/><path d="m235.617 402.067v-10.89c0-4.267-3.459-7.726-7.726-7.726-4.268 0-7.726 3.459-7.726 7.726v10.89z"/><path d="m289.261 420.096c-4.268 0-7.726 3.459-7.726 7.726v10.89h15.453v-10.89c-.001-4.267-3.46-7.726-7.727-7.726z"/><path d="m263.726 438.711v-10.889c0-4.267-3.459-7.726-7.726-7.726s-7.726 3.459-7.726 7.726v10.89z"/><path d="m230.466 438.711v-10.889c0-4.267-3.459-7.726-7.726-7.726s-7.726 3.459-7.726 7.726v10.89z"/><path d="m284.11 345.777c-4.268 0-7.726 3.459-7.726 7.726v11.92h15.453v-11.92c-.001-4.267-3.46-7.726-7.727-7.726z"/><path d="m225.315 365.423v-11.92c0-4.267-3.459-7.726-7.726-7.726s-7.726 3.459-7.726 7.726v11.92z"/><path d="m258.575 353.503c0-4.267-3.459-7.726-7.726-7.726s-7.726 3.459-7.726 7.726v11.92h15.453v-11.92z"/><path d="m217.589 456.739c-4.268 0-7.726 3.459-7.726 7.726v10.89h15.453v-10.89c-.001-4.266-3.46-7.726-7.727-7.726z"/><path d="m250.849 456.739c-4.268 0-7.726 3.459-7.726 7.726v10.89h15.453v-10.89c-.001-4.266-3.459-7.726-7.727-7.726z"/><path d="m284.11 456.739c-4.268 0-7.726 3.459-7.726 7.726v10.89h15.453v-10.89c-.001-4.266-3.46-7.726-7.727-7.726z"/><path d="m227.89 493.384c-4.268 0-7.726 3.459-7.726 7.726v10.89h15.453v-10.89c0-4.267-3.459-7.726-7.727-7.726z"/><path d="m261.151 493.384c-4.268 0-7.726 3.459-7.726 7.726v10.89h15.453v-10.89c-.001-4.267-3.459-7.726-7.727-7.726z"/><path d="m294.411 493.384c-4.268 0-7.726 3.459-7.726 7.726v10.89h15.453v-10.89c0-4.267-3.459-7.726-7.727-7.726z"/><path d="m468.438 420.096c-4.268 0-7.726 3.459-7.726 7.726v10.89h15.453v-10.89c-.001-4.267-3.46-7.726-7.727-7.726z"/><path d="m409.644 438.711v-10.889c0-4.267-3.459-7.726-7.726-7.726s-7.726 3.459-7.726 7.726v10.89z"/><path d="m442.903 438.711v-10.889c0-4.267-3.459-7.726-7.726-7.726s-7.726 3.459-7.726 7.726v10.89z"/><path d="m112.143 383.451c-4.268 0-7.726 3.459-7.726 7.726v10.89h15.453v-10.89c-.001-4.267-3.46-7.726-7.727-7.726z"/><path d="m53.349 402.067v-10.89c0-4.267-3.459-7.726-7.726-7.726s-7.726 3.459-7.726 7.726v10.89z"/><path d="m86.61 391.178c0-4.267-3.459-7.726-7.726-7.726-4.268 0-7.726 3.459-7.726 7.726v10.89h15.452z"/><path d="m224.8 310.162c-4.268 0-7.726 3.459-7.726 7.726v10.89h15.453v-10.89c-.001-4.266-3.46-7.726-7.727-7.726z"/><path d="m258.06 310.162c-4.268 0-7.726 3.459-7.726 7.726v10.89h15.453v-10.89c0-4.266-3.459-7.726-7.727-7.726z"/><path d="m291.321 310.162c-4.268 0-7.726 3.459-7.726 7.726v10.89h15.453v-10.89c-.001-4.266-3.459-7.726-7.727-7.726z"/></g></svg>